<svg xmlns="http://www.w3.org/2000/svg" viewBox="0 0 400 800" fill="none">
  <!-- 여성 실루엣 - 핑크색 반투명 -->
  <g opacity="0.6" fill="#ec4899">
    <!-- 머리 -->
    <ellipse cx="200" cy="80" rx="60" ry="70"/>
    
    <!-- 목 -->
    <rect x="180" y="140" width="40" height="30" rx="8"/>
    
    <!-- 몸통 (여성형) -->
    <path d="M 160 170 Q 140 200 130 250 L 130 400 Q 130 420 140 420 L 160 420 L 160 500 Q 160 520 170 520 L 180 520 L 180 780 Q 180 800 200 800 Q 220 800 220 780 L 220 520 L 230 520 Q 240 520 240 500 L 240 420 L 260 420 Q 270 420 270 400 L 270 250 Q 260 200 240 170 Z"/>
    
    <!-- 왼팔 -->
    <path d="M 140 180 Q 100 200 80 250 L 70 350 Q 65 370 75 375 Q 85 380 90 360 L 110 280 Q 120 240 140 220 Z"/>
    
    <!-- 오른팔 -->
    <path d="M 260 180 Q 300 200 320 250 L 330 350 Q 335 370 325 375 Q 315 380 310 360 L 290 280 Q 280 240 260 220 Z"/>
    
    <!-- 치마 효과 (여성 특징) -->
    <path d="M 130 400 Q 120 420 120 450 L 110 480 Q 100 500 130 500 L 160 500 M 270 400 Q 280 420 280 450 L 290 480 Q 300 500 270 500 L 240 500" opacity="0.4"/>
  </g>
</svg>
