<svg xmlns="http://www.w3.org/2000/svg" viewBox="0 0 400 800" fill="none">
  <!-- 남성 실루엣 - 파란색 반투명 -->
  <g opacity="0.6" fill="#3b82f6">
    <!-- 머리 -->
    <ellipse cx="200" cy="75" rx="55" ry="65"/>
    
    <!-- 목 -->
    <rect x="175" y="130" width="50" height="35" rx="8"/>
    
    <!-- 몸통 (남성형 - 어깨 넓음) -->
    <path d="M 150 165 Q 130 180 120 200 L 110 250 L 110 400 Q 110 420 120 420 L 150 420 L 150 500 Q 150 520 160 520 L 170 520 L 170 780 Q 170 800 200 800 Q 230 800 230 780 L 230 520 L 240 520 Q 250 520 250 500 L 250 420 L 280 420 Q 290 420 290 400 L 290 250 L 280 200 Q 270 180 250 165 Z"/>
    
    <!-- 왼팔 -->
    <path d="M 120 175 Q 80 190 60 230 L 50 340 Q 45 360 55 365 Q 65 370 70 350 L 85 260 Q 95 220 120 200 Z"/>
    
    <!-- 오른팔 -->
    <path d="M 280 175 Q 320 190 340 230 L 350 340 Q 355 360 345 365 Q 335 370 330 350 L 315 260 Q 305 220 280 200 Z"/>
    
    <!-- 넓은 어깨 강조 -->
    <rect x="120" y="165" width="160" height="25" rx="8" opacity="0.3"/>
  </g>
</svg>
